<svg xmlns="http://www.w3.org/2000/svg" xmlns:xlink="http://www.w3.org/1999/xlink" version="1.1" class="marks" width="460" height="273" viewBox="0 0 460 273"><rect width="460" height="273" fill="white"/><g fill="none" stroke-miterlimit="10" transform="translate(54,22)"><g class="mark-group role-frame root" role="graphics-object" aria-roledescription="group mark container"><g transform="translate(0,0)"><path class="background" aria-hidden="true" d="M0.5,0.5h400v200h-400Z" stroke="#ddd"/><g><g class="mark-group role-axis" aria-hidden="true"><g transform="translate(0.5,200.5)"><path class="background" aria-hidden="true" d="M0,0h0v0h0Z" pointer-events="none"/><g><g class="mark-rule role-axis-grid" pointer-events="none"><line transform="translate(5,-200)" x2="0" y2="200" stroke="#ddd" stroke-width="1" opacity="1"/><line transform="translate(31,-200)" x2="0" y2="200" stroke="#ddd" stroke-width="1" opacity="1"/><line transform="translate(57,-200)" x2="0" y2="200" stroke="#ddd" stroke-width="1" opacity="1"/><line transform="translate(83,-200)" x2="0" y2="200" stroke="#ddd" stroke-width="1" opacity="1"/><line transform="translate(109,-200)" x2="0" y2="200" stroke="#ddd" stroke-width="1" opacity="1"/><line transform="translate(135,-200)" x2="0" y2="200" stroke="#ddd" stroke-width="1" opacity="1"/><line transform="translate(161,-200)" x2="0" y2="200" stroke="#ddd" stroke-width="1" opacity="1"/><line transform="translate(187,-200)" x2="0" y2="200" stroke="#ddd" stroke-width="1" opacity="1"/><line transform="translate(213,-200)" x2="0" y2="200" stroke="#ddd" stroke-width="1" opacity="1"/><line transform="translate(239,-200)" x2="0" y2="200" stroke="#ddd" stroke-width="1" opacity="1"/><line transform="translate(265,-200)" x2="0" y2="200" stroke="#ddd" stroke-width="1" opacity="1"/><line transform="translate(291,-200)" x2="0" y2="200" stroke="#ddd" stroke-width="1" opacity="1"/><line transform="translate(317,-200)" x2="0" y2="200" stroke="#ddd" stroke-width="1" opacity="1"/><line transform="translate(343,-200)" x2="0" y2="200" stroke="#ddd" stroke-width="1" opacity="1"/><line transform="translate(369,-200)" x2="0" y2="200" stroke="#ddd" stroke-width="1" opacity="1"/><line transform="translate(395,-200)" x2="0" y2="200" stroke="#ddd" stroke-width="1" opacity="1"/></g></g><path class="foreground" aria-hidden="true" d="" pointer-events="none" display="none"/></g></g><g class="mark-group role-axis" aria-hidden="true"><g transform="translate(0.5,0.5)"><path class="background" aria-hidden="true" d="M0,0h0v0h0Z" pointer-events="none"/><g><g class="mark-rule role-axis-grid" pointer-events="none"><line transform="translate(0,200)" x2="400" y2="0" stroke="#ddd" stroke-width="1" opacity="1"/><line transform="translate(0,169)" x2="400" y2="0" stroke="#ddd" stroke-width="1" opacity="1"/><line transform="translate(0,138)" x2="400" y2="0" stroke="#ddd" stroke-width="1" opacity="1"/><line transform="translate(0,108)" x2="400" y2="0" stroke="#ddd" stroke-width="1" opacity="1"/><line transform="translate(0,77)" x2="400" y2="0" stroke="#ddd" stroke-width="1" opacity="1"/><line transform="translate(0,46)" x2="400" y2="0" stroke="#ddd" stroke-width="1" opacity="1"/><line transform="translate(0,15)" x2="400" y2="0" stroke="#ddd" stroke-width="1" opacity="1"/></g></g><path class="foreground" aria-hidden="true" d="" pointer-events="none" display="none"/></g></g><g class="mark-group role-axis" role="graphics-symbol" aria-roledescription="axis" aria-label="X-axis for a time scale with values from Friday, 30 September 2022, 2:46:09 PM to Monday, 31 October 2022, 9:13:50 AM"><g transform="translate(0.5,200.5)"><path class="background" aria-hidden="true" d="M0,0h0v0h0Z" pointer-events="none"/><g><g class="mark-rule role-axis-tick" pointer-events="none"><line transform="translate(5,0)" x2="0" y2="5" stroke="#888" stroke-width="1" opacity="1"/><line transform="translate(31,0)" x2="0" y2="5" stroke="#888" stroke-width="1" opacity="1"/><line transform="translate(57,0)" x2="0" y2="5" stroke="#888" stroke-width="1" opacity="1"/><line transform="translate(83,0)" x2="0" y2="5" stroke="#888" stroke-width="1" opacity="1"/><line transform="translate(109,0)" x2="0" y2="5" stroke="#888" stroke-width="1" opacity="1"/><line transform="translate(135,0)" x2="0" y2="5" stroke="#888" stroke-width="1" opacity="1"/><line transform="translate(161,0)" x2="0" y2="5" stroke="#888" stroke-width="1" opacity="1"/><line transform="translate(187,0)" x2="0" y2="5" stroke="#888" stroke-width="1" opacity="1"/><line transform="translate(213,0)" x2="0" y2="5" stroke="#888" stroke-width="1" opacity="1"/><line transform="translate(239,0)" x2="0" y2="5" stroke="#888" stroke-width="1" opacity="1"/><line transform="translate(265,0)" x2="0" y2="5" stroke="#888" stroke-width="1" opacity="1"/><line transform="translate(291,0)" x2="0" y2="5" stroke="#888" stroke-width="1" opacity="1"/><line transform="translate(317,0)" x2="0" y2="5" stroke="#888" stroke-width="1" opacity="1"/><line transform="translate(343,0)" x2="0" y2="5" stroke="#888" stroke-width="1" opacity="1"/><line transform="translate(369,0)" x2="0" y2="5" stroke="#888" stroke-width="1" opacity="1"/><line transform="translate(395,0)" x2="0" y2="5" stroke="#888" stroke-width="1" opacity="1"/></g><g class="mark-text role-axis-label" pointer-events="none"><text text-anchor="end" transform="translate(5.000000114728009,7) rotate(270) translate(0,3)" font-family="sans-serif" font-size="10px" fill="#000" opacity="1">October</text><text text-anchor="end" transform="translate(31.000000109461805,7) rotate(270) translate(0,3)" font-family="sans-serif" font-size="10px" fill="#000" opacity="1">Mon 03</text><text text-anchor="end" transform="translate(57.0000001041956,7) rotate(270) translate(0,3)" font-family="sans-serif" font-size="10px" fill="#000" opacity="1">Wed 05</text><text text-anchor="end" transform="translate(83.00000009892939,7) rotate(270) translate(0,3)" font-family="sans-serif" font-size="10px" fill="#000" opacity="1">Fri 07</text><text text-anchor="end" transform="translate(109.0000000936632,7) rotate(270) translate(0,3)" font-family="sans-serif" font-size="10px" fill="#000" opacity="1">Oct 09</text><text text-anchor="end" transform="translate(135.00000008839697,7) rotate(270) translate(0,3)" font-family="sans-serif" font-size="10px" fill="#000" opacity="1">Tue 11</text><text text-anchor="end" transform="translate(161.00000008313077,7) rotate(270) translate(0,3)" font-family="sans-serif" font-size="10px" fill="#000" opacity="1">Thu 13</text><text text-anchor="end" transform="translate(187.0000000778646,7) rotate(270) translate(0,3)" font-family="sans-serif" font-size="10px" fill="#000" opacity="1">Sat 15</text><text text-anchor="end" transform="translate(213.00000007259837,7) rotate(270) translate(0,3)" font-family="sans-serif" font-size="10px" fill="#000" opacity="1">Mon 17</text><text text-anchor="end" transform="translate(239.0000000673322,7) rotate(270) translate(0,3)" font-family="sans-serif" font-size="10px" fill="#000" opacity="1">Wed 19</text><text text-anchor="end" transform="translate(265.00000006206596,7) rotate(270) translate(0,3)" font-family="sans-serif" font-size="10px" fill="#000" opacity="1">Fri 21</text><text text-anchor="end" transform="translate(291.00000005679976,7) rotate(270) translate(0,3)" font-family="sans-serif" font-size="10px" fill="#000" opacity="1">Oct 23</text><text text-anchor="end" transform="translate(317.00000005153356,7) rotate(270) translate(0,3)" font-family="sans-serif" font-size="10px" fill="#000" opacity="1">Tue 25</text><text text-anchor="end" transform="translate(343.00000004626736,7) rotate(270) translate(0,3)" font-family="sans-serif" font-size="10px" fill="#000" opacity="1">Thu 27</text><text text-anchor="end" transform="translate(369.00000004100116,7) rotate(270) translate(0,3)" font-family="sans-serif" font-size="10px" fill="#000" opacity="1">Sat 29</text><text text-anchor="end" transform="translate(395.00000003573496,7) rotate(270) translate(0,3)" font-family="sans-serif" font-size="10px" fill="#000" opacity="1">Mon 31</text></g><g class="mark-rule role-axis-domain" pointer-events="none"><line transform="translate(0,0)" x2="400" y2="0" stroke="#888" stroke-width="1" opacity="1"/></g></g><path class="foreground" aria-hidden="true" d="" pointer-events="none" display="none"/></g></g><g class="mark-group role-axis" role="graphics-symbol" aria-roledescription="axis" aria-label="Y-axis titled 'MW' for a linear scale with values from 0 to 1,300"><g transform="translate(0.5,0.5)"><path class="background" aria-hidden="true" d="M0,0h0v0h0Z" pointer-events="none"/><g><g class="mark-rule role-axis-tick" pointer-events="none"><line transform="translate(0,200)" x2="-5" y2="0" stroke="#888" stroke-width="1" opacity="1"/><line transform="translate(0,169)" x2="-5" y2="0" stroke="#888" stroke-width="1" opacity="1"/><line transform="translate(0,138)" x2="-5" y2="0" stroke="#888" stroke-width="1" opacity="1"/><line transform="translate(0,108)" x2="-5" y2="0" stroke="#888" stroke-width="1" opacity="1"/><line transform="translate(0,77)" x2="-5" y2="0" stroke="#888" stroke-width="1" opacity="1"/><line transform="translate(0,46)" x2="-5" y2="0" stroke="#888" stroke-width="1" opacity="1"/><line transform="translate(0,15)" x2="-5" y2="0" stroke="#888" stroke-width="1" opacity="1"/></g><g class="mark-text role-axis-label" pointer-events="none"><text text-anchor="end" transform="translate(-7,203)" font-family="sans-serif" font-size="10px" fill="#000" opacity="1">0</text><text text-anchor="end" transform="translate(-7,172.23076923076923)" font-family="sans-serif" font-size="10px" fill="#000" opacity="1">200</text><text text-anchor="end" transform="translate(-7,141.46153846153845)" font-family="sans-serif" font-size="10px" fill="#000" opacity="1">400</text><text text-anchor="end" transform="translate(-7,110.6923076923077)" font-family="sans-serif" font-size="10px" fill="#000" opacity="1">600</text><text text-anchor="end" transform="translate(-7,79.92307692307692)" font-family="sans-serif" font-size="10px" fill="#000" opacity="1">800</text><text text-anchor="end" transform="translate(-7,49.153846153846146)" font-family="sans-serif" font-size="10px" fill="#000" opacity="1">1,000</text><text text-anchor="end" transform="translate(-7,18.384615384615373)" font-family="sans-serif" font-size="10px" fill="#000" opacity="1">1,200</text></g><g class="mark-rule role-axis-domain" pointer-events="none"><line transform="translate(0,200)" x2="0" y2="-200" stroke="#888" stroke-width="1" opacity="1"/></g><g class="mark-text role-axis-title" pointer-events="none"><text text-anchor="middle" transform="translate(-38,100) rotate(-90) translate(0,-2)" font-family="sans-serif" font-size="11px" font-weight="bold" fill="#000" opacity="1">MW</text></g></g><path class="foreground" aria-hidden="true" d="" pointer-events="none" display="none"/></g></g><g class="mark-rect role-mark layer_0_marks" clip-path="url(#clip1)" role="graphics-object" aria-roledescription="rect mark container"><path aria-label="timeStamp: Oct 01, 2022; MW: 154" role="graphics-symbol" aria-roledescription="bar" d="M2.5000001147280093,176.3076923076923h5v23.692307692307708h-5Z" fill="green" opacity="0.6"/><path aria-label="timeStamp: Oct 02, 2022; MW: 1270" role="graphics-symbol" aria-roledescription="bar" d="M15.50000011209491,4.615384615384621h5v195.3846153846154h-5Z" fill="green" opacity="0.6"/><path aria-label="timeStamp: Oct 03, 2022; MW: 0" role="graphics-symbol" aria-roledescription="bar" d="M28.500000109461805,200h5v0h-5Z" fill="green" opacity="0.6"/><path aria-label="timeStamp: Oct 04, 2022; MW: 173" role="graphics-symbol" aria-roledescription="bar" d="M41.5000001068287,173.3846153846154h5v26.615384615384613h-5Z" fill="green" opacity="0.6"/><path aria-label="timeStamp: Oct 05, 2022; MW: 142" role="graphics-symbol" aria-roledescription="bar" d="M54.5000001041956,178.15384615384616h5v21.84615384615384h-5Z" fill="green" opacity="0.6"/><path aria-label="timeStamp: Oct 06, 2022; MW: 0" role="graphics-symbol" aria-roledescription="bar" d="M67.50000010156249,200h5v0h-5Z" fill="green" opacity="0.6"/><path aria-label="timeStamp: Oct 07, 2022; MW: 1283" role="graphics-symbol" aria-roledescription="bar" d="M80.50000009892939,2.6153846153846194h5v197.3846153846154h-5Z" fill="green" opacity="0.6"/><path aria-label="timeStamp: Oct 08, 2022; MW: 0" role="graphics-symbol" aria-roledescription="bar" d="M93.5000000962963,200h5v0h-5Z" fill="green" opacity="0.6"/><path aria-label="timeStamp: Oct 09, 2022; MW: 567" role="graphics-symbol" aria-roledescription="bar" d="M106.5000000936632,112.76923076923077h5v87.23076923076923h-5Z" fill="green" opacity="0.6"/><path aria-label="timeStamp: Oct 10, 2022; MW: 0" role="graphics-symbol" aria-roledescription="bar" d="M119.50000009103009,200h5v0h-5Z" fill="green" opacity="0.6"/><path aria-label="timeStamp: Oct 11, 2022; MW: 278" role="graphics-symbol" aria-roledescription="bar" d="M132.50000008839697,157.23076923076923h5v42.769230769230774h-5Z" fill="green" opacity="0.6"/><path aria-label="timeStamp: Oct 12, 2022; MW: 0" role="graphics-symbol" aria-roledescription="bar" d="M145.50000008576387,200h5v0h-5Z" fill="green" opacity="0.6"/><path aria-label="timeStamp: Oct 13, 2022; MW: 0" role="graphics-symbol" aria-roledescription="bar" d="M158.50000008313077,200h5v0h-5Z" fill="green" opacity="0.6"/><path aria-label="timeStamp: Oct 14, 2022; MW: 418" role="graphics-symbol" aria-roledescription="bar" d="M171.50000008049767,135.69230769230768h5v64.30769230769232h-5Z" fill="green" opacity="0.6"/><path aria-label="timeStamp: Oct 15, 2022; MW: 0" role="graphics-symbol" aria-roledescription="bar" d="M184.5000000778646,200h5v0h-5Z" fill="green" opacity="0.6"/><path aria-label="timeStamp: Oct 16, 2022; MW: 543" role="graphics-symbol" aria-roledescription="bar" d="M197.50000007523147,116.46153846153847h5v83.53846153846153h-5Z" fill="green" opacity="0.6"/><path aria-label="timeStamp: Oct 17, 2022; MW: 0" role="graphics-symbol" aria-roledescription="bar" d="M210.50000007259837,200h5v0h-5Z" fill="green" opacity="0.6"/><path aria-label="timeStamp: Oct 18, 2022; MW: 0" role="graphics-symbol" aria-roledescription="bar" d="M223.50000006996527,200h5v0h-5Z" fill="green" opacity="0.6"/><path aria-label="timeStamp: Oct 19, 2022; MW: 0" role="graphics-symbol" aria-roledescription="bar" d="M236.5000000673322,200h5v0h-5Z" fill="green" opacity="0.6"/><path aria-label="timeStamp: Oct 20, 2022; MW: 410" role="graphics-symbol" aria-roledescription="bar" d="M249.5000000646991,136.92307692307693h5v63.076923076923066h-5Z" fill="green" opacity="0.6"/><path aria-label="timeStamp: Oct 21, 2022; MW: 0" role="graphics-symbol" aria-roledescription="bar" d="M262.50000006206596,200h5v0h-5Z" fill="green" opacity="0.6"/><path aria-label="timeStamp: Oct 22, 2022; MW: 264" role="graphics-symbol" aria-roledescription="bar" d="M275.50000005943286,159.3846153846154h5v40.61538461538461h-5Z" fill="green" opacity="0.6"/><path aria-label="timeStamp: Oct 23, 2022; MW: 0" role="graphics-symbol" aria-roledescription="bar" d="M288.50000005679976,200h5v0h-5Z" fill="green" opacity="0.6"/><path aria-label="timeStamp: Oct 24, 2022; MW: 893" role="graphics-symbol" aria-roledescription="bar" d="M301.50000005416666,62.615384615384606h5v137.3846153846154h-5Z" fill="green" opacity="0.6"/><path aria-label="timeStamp: Oct 25, 2022; MW: 0" role="graphics-symbol" aria-roledescription="bar" d="M314.50000005153356,200h5v0h-5Z" fill="green" opacity="0.6"/><path aria-label="timeStamp: Oct 26, 2022; MW: 0" role="graphics-symbol" aria-roledescription="bar" d="M327.50000004890046,200h5v0h-5Z" fill="green" opacity="0.6"/><path aria-label="timeStamp: Oct 27, 2022; MW: 288" role="graphics-symbol" aria-roledescription="bar" d="M340.50000004626736,155.69230769230768h5v44.30769230769232h-5Z" fill="green" opacity="0.6"/><path aria-label="timeStamp: Oct 28, 2022; MW: 927" role="graphics-symbol" aria-roledescription="bar" d="M353.50000004363426,57.38461538461539h5v142.6153846153846h-5Z" fill="green" opacity="0.6"/><path aria-label="timeStamp: Oct 29, 2022; MW: 894" role="graphics-symbol" aria-roledescription="bar" d="M366.50000004100116,62.46153846153846h5v137.53846153846155h-5Z" fill="green" opacity="0.6"/><path aria-label="timeStamp: Oct 30, 2022; MW: 182" role="graphics-symbol" aria-roledescription="bar" d="M379.50000003836806,172h5v28h-5Z" fill="green" opacity="0.6"/><path aria-label="timeStamp: Oct 31, 2022; MW: 8.97286350749" role="graphics-symbol" aria-roledescription="bar" d="M392.50000003573496,198.6195594603857h5v1.3804405396143125h-5Z" fill="green" opacity="0.6"/></g><g class="mark-rect role-mark layer_1_marks" clip-path="url(#clip2)" role="graphics-object" aria-roledescription="rect mark container"><path aria-label="timeStamp: Oct 01, 2022; MW: 0" role="graphics-symbol" aria-roledescription="bar" d="M2.5000001147280093,200h5v0h-5Z" fill="red" opacity="0.6"/><path aria-label="timeStamp: Oct 02, 2022; MW: 0" role="graphics-symbol" aria-roledescription="bar" d="M15.50000011209491,200h5v0h-5Z" fill="red" opacity="0.6"/><path aria-label="timeStamp: Oct 03, 2022; MW: 685" role="graphics-symbol" aria-roledescription="bar" d="M28.500000109461805,94.61538461538461h5v105.38461538461539h-5Z" fill="red" opacity="0.6"/><path aria-label="timeStamp: Oct 04, 2022; MW: 0" role="graphics-symbol" aria-roledescription="bar" d="M41.5000001068287,200h5v0h-5Z" fill="red" opacity="0.6"/><path aria-label="timeStamp: Oct 05, 2022; MW: 0" role="graphics-symbol" aria-roledescription="bar" d="M54.5000001041956,200h5v0h-5Z" fill="red" opacity="0.6"/><path aria-label="timeStamp: Oct 06, 2022; MW: 823" role="graphics-symbol" aria-roledescription="bar" d="M67.50000010156249,73.38461538461539h5v126.61538461538461h-5Z" fill="red" opacity="0.6"/><path aria-label="timeStamp: Oct 07, 2022; MW: 0" role="graphics-symbol" aria-roledescription="bar" d="M80.50000009892939,200h5v0h-5Z" fill="red" opacity="0.6"/><path aria-label="timeStamp: Oct 08, 2022; MW: 567" role="graphics-symbol" aria-roledescription="bar" d="M93.5000000962963,112.76923076923077h5v87.23076923076923h-5Z" fill="red" opacity="0.6"/><path aria-label="timeStamp: Oct 09, 2022; MW: 0" role="graphics-symbol" aria-roledescription="bar" d="M106.5000000936632,200h5v0h-5Z" fill="red" opacity="0.6"/><path aria-label="timeStamp: Oct 10, 2022; MW: 1237" role="graphics-symbol" aria-roledescription="bar" d="M119.50000009103009,9.69230769230769h5v190.30769230769232h-5Z" fill="red" opacity="0.6"/><path aria-label="timeStamp: Oct 11, 2022; MW: 0" role="graphics-symbol" aria-roledescription="bar" d="M132.50000008839697,200h5v0h-5Z" fill="red" opacity="0.6"/><path aria-label="timeStamp: Oct 12, 2022; MW: 671" role="graphics-symbol" aria-roledescription="bar" d="M145.50000008576387,96.76923076923076h5v103.23076923076924h-5Z" fill="red" opacity="0.6"/><path aria-label="timeStamp: Oct 13, 2022; MW: 316" role="graphics-symbol" aria-roledescription="bar" d="M158.50000008313077,151.3846153846154h5v48.61538461538461h-5Z" fill="red" opacity="0.6"/><path aria-label="timeStamp: Oct 14, 2022; MW: 0" role="graphics-symbol" aria-roledescription="bar" d="M171.50000008049767,200h5v0h-5Z" fill="red" opacity="0.6"/><path aria-label="timeStamp: Oct 15, 2022; MW: 356" role="graphics-symbol" aria-roledescription="bar" d="M184.5000000778646,145.23076923076923h5v54.769230769230774h-5Z" fill="red" opacity="0.6"/><path aria-label="timeStamp: Oct 16, 2022; MW: 0" role="graphics-symbol" aria-roledescription="bar" d="M197.50000007523147,200h5v0h-5Z" fill="red" opacity="0.6"/><path aria-label="timeStamp: Oct 17, 2022; MW: 218" role="graphics-symbol" aria-roledescription="bar" d="M210.50000007259837,166.46153846153845h5v33.53846153846155h-5Z" fill="red" opacity="0.6"/><path aria-label="timeStamp: Oct 18, 2022; MW: 130" role="graphics-symbol" aria-roledescription="bar" d="M223.50000006996527,180h5v20h-5Z" fill="red" opacity="0.6"/><path aria-label="timeStamp: Oct 19, 2022; MW: 323" role="graphics-symbol" aria-roledescription="bar" d="M236.5000000673322,150.3076923076923h5v49.69230769230771h-5Z" fill="red" opacity="0.6"/><path aria-label="timeStamp: Oct 20, 2022; MW: 0" role="graphics-symbol" aria-roledescription="bar" d="M249.5000000646991,200h5v0h-5Z" fill="red" opacity="0.6"/><path aria-label="timeStamp: Oct 21, 2022; MW: 29" role="graphics-symbol" aria-roledescription="bar" d="M262.50000006206596,195.53846153846152h5v4.461538461538481h-5Z" fill="red" opacity="0.6"/><path aria-label="timeStamp: Oct 22, 2022; MW: 0" role="graphics-symbol" aria-roledescription="bar" d="M275.50000005943286,200h5v0h-5Z" fill="red" opacity="0.6"/><path aria-label="timeStamp: Oct 23, 2022; MW: 336" role="graphics-symbol" aria-roledescription="bar" d="M288.50000005679976,148.3076923076923h5v51.69230769230771h-5Z" fill="red" opacity="0.6"/><path aria-label="timeStamp: Oct 24, 2022; MW: 0" role="graphics-symbol" aria-roledescription="bar" d="M301.50000005416666,200h5v0h-5Z" fill="red" opacity="0.6"/><path aria-label="timeStamp: Oct 25, 2022; MW: 207" role="graphics-symbol" aria-roledescription="bar" d="M314.50000005153356,168.15384615384613h5v31.846153846153868h-5Z" fill="red" opacity="0.6"/><path aria-label="timeStamp: Oct 26, 2022; MW: 1257" role="graphics-symbol" aria-roledescription="bar" d="M327.50000004890046,6.615384615384623h5v193.3846153846154h-5Z" fill="red" opacity="0.6"/><path aria-label="timeStamp: Oct 27, 2022; MW: 0" role="graphics-symbol" aria-roledescription="bar" d="M340.50000004626736,200h5v0h-5Z" fill="red" opacity="0.6"/><path aria-label="timeStamp: Oct 28, 2022; MW: 0" role="graphics-symbol" aria-roledescription="bar" d="M353.50000004363426,200h5v0h-5Z" fill="red" opacity="0.6"/><path aria-label="timeStamp: Oct 29, 2022; MW: 0" role="graphics-symbol" aria-roledescription="bar" d="M366.50000004100116,200h5v0h-5Z" fill="red" opacity="0.6"/><path aria-label="timeStamp: Oct 30, 2022; MW: 0" role="graphics-symbol" aria-roledescription="bar" d="M379.50000003836806,200h5v0h-5Z" fill="red" opacity="0.6"/><path aria-label="timeStamp: Oct 31, 2022; MW: 0" role="graphics-symbol" aria-roledescription="bar" d="M392.50000003573496,200h5v0h-5Z" fill="red" opacity="0.6"/></g><g class="mark-group role-title"><g transform="translate(200,-17)"><path class="background" aria-hidden="true" d="M0,0h0v0h0Z" pointer-events="none"/><g><g class="mark-text role-title-text" role="graphics-symbol" aria-roledescription="title" aria-label="Title text 'Solar'" pointer-events="none"><text text-anchor="middle" transform="translate(0,10)" font-family="sans-serif" font-size="13px" font-weight="bold" fill="#000" opacity="1">Solar</text></g></g><path class="foreground" aria-hidden="true" d="" pointer-events="none" display="none"/></g></g></g><path class="foreground" aria-hidden="true" d="" display="none"/></g></g></g><defs><clipPath id="clip1"><rect x="0" y="0" width="400" height="200"/></clipPath><clipPath id="clip2"><rect x="0" y="0" width="400" height="200"/></clipPath></defs></svg>